<mxfile host="Electron" agent="Mozilla/5.0 (Windows NT 10.0; Win64; x64) AppleWebKit/537.36 (KHTML, like Gecko) draw.io/26.0.16 Chrome/132.0.6834.196 Electron/34.2.0 Safari/537.36" version="26.0.16">
  <diagram name="Page-1" id="W3CQ2o2nO0XMTOHJq9st">
    <mxGraphModel dx="1036" dy="625" grid="1" gridSize="10" guides="1" tooltips="1" connect="1" arrows="1" fold="1" page="1" pageScale="1" pageWidth="827" pageHeight="1169" math="0" shadow="0">
      <root>
        <mxCell id="0" />
        <mxCell id="1" parent="0" />
        <mxCell id="5ESLcy31KPLQZo5LED9M-1" value="" style="rounded=0;whiteSpace=wrap;html=1;" parent="1" vertex="1">
          <mxGeometry x="30" y="100" width="650" height="300" as="geometry" />
        </mxCell>
        <mxCell id="5ESLcy31KPLQZo5LED9M-2" value="&lt;font style=&quot;font-size: 19px;&quot;&gt;roscore&lt;/font&gt;" style="text;html=1;align=center;verticalAlign=middle;whiteSpace=wrap;rounded=0;" parent="1" vertex="1">
          <mxGeometry x="280" y="50" width="120" height="50" as="geometry" />
        </mxCell>
        <mxCell id="5ESLcy31KPLQZo5LED9M-10" value="" style="edgeStyle=orthogonalEdgeStyle;rounded=0;orthogonalLoop=1;jettySize=auto;html=1;" parent="1" source="5ESLcy31KPLQZo5LED9M-3" target="5ESLcy31KPLQZo5LED9M-6" edge="1">
          <mxGeometry relative="1" as="geometry" />
        </mxCell>
        <mxCell id="5ESLcy31KPLQZo5LED9M-17" style="edgeStyle=orthogonalEdgeStyle;rounded=0;orthogonalLoop=1;jettySize=auto;html=1;entryX=0;entryY=0.5;entryDx=0;entryDy=0;" parent="1" source="5ESLcy31KPLQZo5LED9M-3" target="5ESLcy31KPLQZo5LED9M-16" edge="1">
          <mxGeometry relative="1" as="geometry">
            <Array as="points">
              <mxPoint x="160" y="160" />
            </Array>
          </mxGeometry>
        </mxCell>
        <mxCell id="5ESLcy31KPLQZo5LED9M-3" value="&lt;div&gt;move_robot_mobile.py&lt;/div&gt;" style="rounded=0;whiteSpace=wrap;html=1;" parent="1" vertex="1">
          <mxGeometry x="80" y="210" width="150" height="40" as="geometry" />
        </mxCell>
        <mxCell id="5ESLcy31KPLQZo5LED9M-13" style="edgeStyle=orthogonalEdgeStyle;rounded=0;orthogonalLoop=1;jettySize=auto;html=1;entryX=1;entryY=1;entryDx=0;entryDy=0;" parent="1" source="5ESLcy31KPLQZo5LED9M-4" target="5ESLcy31KPLQZo5LED9M-3" edge="1">
          <mxGeometry relative="1" as="geometry">
            <Array as="points">
              <mxPoint x="230" y="270" />
            </Array>
          </mxGeometry>
        </mxCell>
        <mxCell id="5ESLcy31KPLQZo5LED9M-4" value="/base_scan" style="rounded=0;whiteSpace=wrap;html=1;" parent="1" vertex="1">
          <mxGeometry x="490" y="270" width="150" height="60" as="geometry" />
        </mxCell>
        <mxCell id="5ESLcy31KPLQZo5LED9M-5" value="Topics" style="text;html=1;align=center;verticalAlign=middle;whiteSpace=wrap;rounded=0;" parent="1" vertex="1">
          <mxGeometry x="535" y="100" width="60" height="30" as="geometry" />
        </mxCell>
        <mxCell id="5ESLcy31KPLQZo5LED9M-14" style="edgeStyle=orthogonalEdgeStyle;rounded=0;orthogonalLoop=1;jettySize=auto;html=1;entryX=0.5;entryY=1;entryDx=0;entryDy=0;" parent="1" source="5ESLcy31KPLQZo5LED9M-6" target="5ESLcy31KPLQZo5LED9M-4" edge="1">
          <mxGeometry relative="1" as="geometry" />
        </mxCell>
        <mxCell id="5ESLcy31KPLQZo5LED9M-6" value="STAGE" style="rounded=0;whiteSpace=wrap;html=1;" parent="1" vertex="1">
          <mxGeometry x="80" y="340" width="150" height="30" as="geometry" />
        </mxCell>
        <mxCell id="5ESLcy31KPLQZo5LED9M-8" value="/bumper" style="rounded=0;whiteSpace=wrap;html=1;" parent="1" vertex="1">
          <mxGeometry x="490" y="200" width="150" height="60" as="geometry" />
        </mxCell>
        <mxCell id="5ESLcy31KPLQZo5LED9M-12" value="" style="endArrow=classic;startArrow=classic;html=1;rounded=0;exitX=1;exitY=0.5;exitDx=0;exitDy=0;entryX=0;entryY=0.5;entryDx=0;entryDy=0;" parent="1" source="5ESLcy31KPLQZo5LED9M-3" target="5ESLcy31KPLQZo5LED9M-8" edge="1">
          <mxGeometry width="50" height="50" relative="1" as="geometry">
            <mxPoint x="390" y="340" as="sourcePoint" />
            <mxPoint x="440" y="290" as="targetPoint" />
          </mxGeometry>
        </mxCell>
        <mxCell id="5ESLcy31KPLQZo5LED9M-16" value="/cmd_vel" style="rounded=0;whiteSpace=wrap;html=1;" parent="1" vertex="1">
          <mxGeometry x="490" y="130" width="150" height="60" as="geometry" />
        </mxCell>
        <mxCell id="5ESLcy31KPLQZo5LED9M-25" style="edgeStyle=orthogonalEdgeStyle;rounded=0;orthogonalLoop=1;jettySize=auto;html=1;" parent="1" source="5ESLcy31KPLQZo5LED9M-23" target="5ESLcy31KPLQZo5LED9M-26" edge="1">
          <mxGeometry relative="1" as="geometry">
            <mxPoint x="210" y="730" as="targetPoint" />
          </mxGeometry>
        </mxCell>
        <mxCell id="5ESLcy31KPLQZo5LED9M-23" value="Key = &quot;q&quot;" style="rhombus;whiteSpace=wrap;html=1;" parent="1" vertex="1">
          <mxGeometry x="170" y="620" width="80" height="80" as="geometry" />
        </mxCell>
        <mxCell id="5ESLcy31KPLQZo5LED9M-29" style="edgeStyle=orthogonalEdgeStyle;rounded=0;orthogonalLoop=1;jettySize=auto;html=1;entryX=0.5;entryY=0;entryDx=0;entryDy=0;" parent="1" source="5ESLcy31KPLQZo5LED9M-26" target="5ESLcy31KPLQZo5LED9M-28" edge="1">
          <mxGeometry relative="1" as="geometry" />
        </mxCell>
        <mxCell id="5ESLcy31KPLQZo5LED9M-26" value="lockCatapults3_4" style="shape=process;whiteSpace=wrap;html=1;backgroundOutline=1;" parent="1" vertex="1">
          <mxGeometry x="120" y="740" width="180" height="60" as="geometry" />
        </mxCell>
        <mxCell id="5ESLcy31KPLQZo5LED9M-32" style="edgeStyle=orthogonalEdgeStyle;rounded=0;orthogonalLoop=1;jettySize=auto;html=1;entryX=0.5;entryY=0;entryDx=0;entryDy=0;exitX=0.5;exitY=1;exitDx=0;exitDy=0;" parent="1" source="5ESLcy31KPLQZo5LED9M-26" target="5ESLcy31KPLQZo5LED9M-31" edge="1">
          <mxGeometry relative="1" as="geometry" />
        </mxCell>
        <mxCell id="5ESLcy31KPLQZo5LED9M-42" style="edgeStyle=orthogonalEdgeStyle;rounded=0;orthogonalLoop=1;jettySize=auto;html=1;entryX=1;entryY=0.5;entryDx=0;entryDy=0;" parent="1" source="5ESLcy31KPLQZo5LED9M-28" target="5ESLcy31KPLQZo5LED9M-36" edge="1">
          <mxGeometry relative="1" as="geometry">
            <Array as="points">
              <mxPoint x="310" y="970" />
            </Array>
          </mxGeometry>
        </mxCell>
        <mxCell id="5ESLcy31KPLQZo5LED9M-28" value="lockCatapults1_2" style="shape=process;whiteSpace=wrap;html=1;backgroundOutline=1;" parent="1" vertex="1">
          <mxGeometry x="220" y="840" width="180" height="60" as="geometry" />
        </mxCell>
        <mxCell id="5ESLcy31KPLQZo5LED9M-35" style="edgeStyle=orthogonalEdgeStyle;rounded=0;orthogonalLoop=1;jettySize=auto;html=1;entryX=0.5;entryY=0;entryDx=0;entryDy=0;" parent="1" source="5ESLcy31KPLQZo5LED9M-31" target="5ESLcy31KPLQZo5LED9M-36" edge="1">
          <mxGeometry relative="1" as="geometry">
            <mxPoint x="77" y="940" as="targetPoint" />
          </mxGeometry>
        </mxCell>
        <mxCell id="5ESLcy31KPLQZo5LED9M-31" value="landAll" style="shape=process;whiteSpace=wrap;html=1;backgroundOutline=1;" parent="1" vertex="1">
          <mxGeometry x="24" y="840" width="180" height="60" as="geometry" />
        </mxCell>
        <mxCell id="5ESLcy31KPLQZo5LED9M-40" style="edgeStyle=orthogonalEdgeStyle;rounded=0;orthogonalLoop=1;jettySize=auto;html=1;entryX=0.5;entryY=0;entryDx=0;entryDy=0;" parent="1" source="5ESLcy31KPLQZo5LED9M-36" target="5ESLcy31KPLQZo5LED9M-38" edge="1">
          <mxGeometry relative="1" as="geometry" />
        </mxCell>
        <mxCell id="5ESLcy31KPLQZo5LED9M-36" value="while planeFlying()" style="shape=parallelogram;perimeter=parallelogramPerimeter;whiteSpace=wrap;html=1;fixedSize=1;" parent="1" vertex="1">
          <mxGeometry x="29" y="940" width="170" height="60" as="geometry" />
        </mxCell>
        <mxCell id="5ESLcy31KPLQZo5LED9M-38" value="joint()" style="rounded=0;whiteSpace=wrap;html=1;" parent="1" vertex="1">
          <mxGeometry x="54" y="1060" width="120" height="60" as="geometry" />
        </mxCell>
        <mxCell id="5ESLcy31KPLQZo5LED9M-45" value="" style="edgeStyle=orthogonalEdgeStyle;rounded=0;orthogonalLoop=1;jettySize=auto;html=1;" parent="1" source="5ESLcy31KPLQZo5LED9M-43" target="5ESLcy31KPLQZo5LED9M-44" edge="1">
          <mxGeometry relative="1" as="geometry" />
        </mxCell>
        <mxCell id="5ESLcy31KPLQZo5LED9M-43" value="Key = &quot;v&quot;" style="rhombus;whiteSpace=wrap;html=1;" parent="1" vertex="1">
          <mxGeometry x="490" y="620" width="80" height="80" as="geometry" />
        </mxCell>
        <mxCell id="5ESLcy31KPLQZo5LED9M-44" value="getStatesCatapults" style="shape=process;whiteSpace=wrap;html=1;backgroundOutline=1;" parent="1" vertex="1">
          <mxGeometry x="440" y="740" width="180" height="60" as="geometry" />
        </mxCell>
        <mxCell id="5ESLcy31KPLQZo5LED9M-50" style="edgeStyle=orthogonalEdgeStyle;rounded=0;orthogonalLoop=1;jettySize=auto;html=1;" parent="1" source="5ESLcy31KPLQZo5LED9M-48" target="5ESLcy31KPLQZo5LED9M-49" edge="1">
          <mxGeometry relative="1" as="geometry" />
        </mxCell>
        <mxCell id="5ESLcy31KPLQZo5LED9M-48" value="Key = &quot;r&quot;" style="rhombus;whiteSpace=wrap;html=1;" parent="1" vertex="1">
          <mxGeometry x="720" y="620" width="80" height="80" as="geometry" />
        </mxCell>
        <mxCell id="5ESLcy31KPLQZo5LED9M-52" value="" style="edgeStyle=orthogonalEdgeStyle;rounded=0;orthogonalLoop=1;jettySize=auto;html=1;" parent="1" source="5ESLcy31KPLQZo5LED9M-49" target="5ESLcy31KPLQZo5LED9M-51" edge="1">
          <mxGeometry relative="1" as="geometry" />
        </mxCell>
        <mxCell id="5ESLcy31KPLQZo5LED9M-49" value="lockCatapults3_4" style="shape=process;whiteSpace=wrap;html=1;backgroundOutline=1;" parent="1" vertex="1">
          <mxGeometry x="670" y="740" width="180" height="60" as="geometry" />
        </mxCell>
        <mxCell id="5ESLcy31KPLQZo5LED9M-54" value="" style="edgeStyle=orthogonalEdgeStyle;rounded=0;orthogonalLoop=1;jettySize=auto;html=1;" parent="1" source="5ESLcy31KPLQZo5LED9M-51" target="5ESLcy31KPLQZo5LED9M-53" edge="1">
          <mxGeometry relative="1" as="geometry" />
        </mxCell>
        <mxCell id="5ESLcy31KPLQZo5LED9M-51" value="landAll" style="shape=process;whiteSpace=wrap;html=1;backgroundOutline=1;" parent="1" vertex="1">
          <mxGeometry x="670" y="840" width="180" height="60" as="geometry" />
        </mxCell>
        <mxCell id="5ESLcy31KPLQZo5LED9M-55" style="edgeStyle=orthogonalEdgeStyle;rounded=0;orthogonalLoop=1;jettySize=auto;html=1;entryX=0;entryY=0.5;entryDx=0;entryDy=0;" parent="1" source="5ESLcy31KPLQZo5LED9M-53" target="5ESLcy31KPLQZo5LED9M-51" edge="1">
          <mxGeometry relative="1" as="geometry">
            <Array as="points">
              <mxPoint x="650" y="970" />
              <mxPoint x="650" y="870" />
            </Array>
          </mxGeometry>
        </mxCell>
        <mxCell id="5ESLcy31KPLQZo5LED9M-53" value="while planeFlying()" style="shape=parallelogram;perimeter=parallelogramPerimeter;whiteSpace=wrap;html=1;fixedSize=1;" parent="1" vertex="1">
          <mxGeometry x="675" y="940" width="170" height="60" as="geometry" />
        </mxCell>
        <mxCell id="5ESLcy31KPLQZo5LED9M-56" value="(tableau d&#39;objets plan)" style="text;html=1;align=center;verticalAlign=middle;whiteSpace=wrap;rounded=0;" parent="1" vertex="1">
          <mxGeometry x="240" y="567" width="120" height="35" as="geometry" />
        </mxCell>
        <mxCell id="5ESLcy31KPLQZo5LED9M-57" value="class avion&lt;div&gt;isFlying (bool)&lt;/div&gt;" style="text;html=1;align=center;verticalAlign=middle;whiteSpace=wrap;rounded=0;" parent="1" vertex="1">
          <mxGeometry x="390" y="567" width="120" height="35" as="geometry" />
        </mxCell>
        <mxCell id="5ESLcy31KPLQZo5LED9M-58" value="" style="edgeStyle=orthogonalEdgeStyle;rounded=0;orthogonalLoop=1;jettySize=auto;html=1;" parent="1" source="5ESLcy31KPLQZo5LED9M-59" target="5ESLcy31KPLQZo5LED9M-60" edge="1">
          <mxGeometry relative="1" as="geometry" />
        </mxCell>
        <mxCell id="5ESLcy31KPLQZo5LED9M-59" value="Key = &quot;v&quot;" style="rhombus;whiteSpace=wrap;html=1;" parent="1" vertex="1">
          <mxGeometry x="960" y="620" width="80" height="80" as="geometry" />
        </mxCell>
        <mxCell id="5ESLcy31KPLQZo5LED9M-60" value="getStatesPlane" style="shape=process;whiteSpace=wrap;html=1;backgroundOutline=1;" parent="1" vertex="1">
          <mxGeometry x="910" y="740" width="180" height="60" as="geometry" />
        </mxCell>
        <mxCell id="5ESLcy31KPLQZo5LED9M-61" value="" style="edgeStyle=orthogonalEdgeStyle;rounded=0;orthogonalLoop=1;jettySize=auto;html=1;" parent="1" source="5ESLcy31KPLQZo5LED9M-62" target="5ESLcy31KPLQZo5LED9M-63" edge="1">
          <mxGeometry relative="1" as="geometry" />
        </mxCell>
        <mxCell id="5ESLcy31KPLQZo5LED9M-62" value="Key = &quot;1&quot;" style="rhombus;whiteSpace=wrap;html=1;" parent="1" vertex="1">
          <mxGeometry x="1170" y="620" width="80" height="80" as="geometry" />
        </mxCell>
        <mxCell id="5ESLcy31KPLQZo5LED9M-63" value="closeFrontCatapults" style="shape=process;whiteSpace=wrap;html=1;backgroundOutline=1;" parent="1" vertex="1">
          <mxGeometry x="1120" y="740" width="180" height="60" as="geometry" />
        </mxCell>
        <mxCell id="5ESLcy31KPLQZo5LED9M-64" value="" style="edgeStyle=orthogonalEdgeStyle;rounded=0;orthogonalLoop=1;jettySize=auto;html=1;entryX=0.5;entryY=0;entryDx=0;entryDy=0;" parent="1" source="5ESLcy31KPLQZo5LED9M-65" target="5ESLcy31KPLQZo5LED9M-74" edge="1">
          <mxGeometry relative="1" as="geometry">
            <mxPoint x="1420" y="740" as="targetPoint" />
          </mxGeometry>
        </mxCell>
        <mxCell id="5ESLcy31KPLQZo5LED9M-65" value="Key = &quot;2&quot;" style="rhombus;whiteSpace=wrap;html=1;" parent="1" vertex="1">
          <mxGeometry x="1380" y="620" width="80" height="80" as="geometry" />
        </mxCell>
        <mxCell id="5ESLcy31KPLQZo5LED9M-67" value="" style="edgeStyle=orthogonalEdgeStyle;rounded=0;orthogonalLoop=1;jettySize=auto;html=1;" parent="1" source="5ESLcy31KPLQZo5LED9M-68" target="5ESLcy31KPLQZo5LED9M-69" edge="1">
          <mxGeometry relative="1" as="geometry" />
        </mxCell>
        <mxCell id="5ESLcy31KPLQZo5LED9M-68" value="Key = &quot;3&quot;" style="rhombus;whiteSpace=wrap;html=1;" parent="1" vertex="1">
          <mxGeometry x="1610" y="620" width="80" height="80" as="geometry" />
        </mxCell>
        <mxCell id="5ESLcy31KPLQZo5LED9M-69" value="closeSideCatapults" style="shape=process;whiteSpace=wrap;html=1;backgroundOutline=1;" parent="1" vertex="1">
          <mxGeometry x="1560" y="740" width="180" height="60" as="geometry" />
        </mxCell>
        <mxCell id="5ESLcy31KPLQZo5LED9M-70" value="" style="edgeStyle=orthogonalEdgeStyle;rounded=0;orthogonalLoop=1;jettySize=auto;html=1;" parent="1" source="5ESLcy31KPLQZo5LED9M-71" edge="1">
          <mxGeometry relative="1" as="geometry">
            <mxPoint x="1870" y="740" as="targetPoint" />
          </mxGeometry>
        </mxCell>
        <mxCell id="5ESLcy31KPLQZo5LED9M-71" value="Key = &quot;3&quot;" style="rhombus;whiteSpace=wrap;html=1;" parent="1" vertex="1">
          <mxGeometry x="1830" y="620" width="80" height="80" as="geometry" />
        </mxCell>
        <mxCell id="5ESLcy31KPLQZo5LED9M-72" value="openSideCatapults" style="shape=process;whiteSpace=wrap;html=1;backgroundOutline=1;" parent="1" vertex="1">
          <mxGeometry x="1770" y="740" width="180" height="60" as="geometry" />
        </mxCell>
        <mxCell id="5ESLcy31KPLQZo5LED9M-73" value="Prend un sémaphore" style="text;html=1;align=center;verticalAlign=middle;whiteSpace=wrap;rounded=0;" parent="1" vertex="1">
          <mxGeometry x="1150" y="830" width="120" height="35" as="geometry" />
        </mxCell>
        <mxCell id="5ESLcy31KPLQZo5LED9M-74" value="openFrontCatapults" style="shape=process;whiteSpace=wrap;html=1;backgroundOutline=1;" parent="1" vertex="1">
          <mxGeometry x="1330" y="740" width="180" height="60" as="geometry" />
        </mxCell>
        <mxCell id="5ESLcy31KPLQZo5LED9M-76" value="Rend un sémaphore" style="text;html=1;align=center;verticalAlign=middle;whiteSpace=wrap;rounded=0;" parent="1" vertex="1">
          <mxGeometry x="1360" y="830" width="120" height="35" as="geometry" />
        </mxCell>
        <mxCell id="5ESLcy31KPLQZo5LED9M-77" value="Prend un sémaphore" style="text;html=1;align=center;verticalAlign=middle;whiteSpace=wrap;rounded=0;" parent="1" vertex="1">
          <mxGeometry x="1580" y="830" width="120" height="35" as="geometry" />
        </mxCell>
        <mxCell id="5ESLcy31KPLQZo5LED9M-78" value="Rend un sémaphore" style="text;html=1;align=center;verticalAlign=middle;whiteSpace=wrap;rounded=0;" parent="1" vertex="1">
          <mxGeometry x="1790" y="830" width="120" height="35" as="geometry" />
        </mxCell>
      </root>
    </mxGraphModel>
  </diagram>
</mxfile>
